<svg width="10" height="16" viewBox="0 0 10 16" fill="none" xmlns="http://www.w3.org/2000/svg">
<path d="M9.55077 7.03909L2.05046 0.788814C1.79548 0.577907 1.46732 0.476634 1.13784 0.507172C0.808355 0.53771 0.504398 0.69757 0.292531 0.951746C0.0806646 1.20592 -0.0218453 1.5337 0.00744963 1.86329C0.0367446 2.19289 0.195457 2.49745 0.448831 2.71027L6.79675 7.99986L0.448831 13.2894C0.19448 13.502 0.034891 13.8068 0.00511988 14.1369C-0.0246513 14.467 0.0778308 14.7954 0.290054 15.05C0.502276 15.3046 0.806883 15.4646 1.13696 15.4948C1.46704 15.5249 1.7956 15.4228 2.05046 15.2109L9.55077 8.96054C9.69141 8.84305 9.80453 8.69611 9.88216 8.5301C9.95978 8.3641 10 8.18307 10 7.99981C10 7.81656 9.95978 7.63553 9.88216 7.46953C9.80453 7.30352 9.69141 7.15658 9.55077 7.03909Z" fill="white"/>
</svg>
