<svg width="22" height="18" viewBox="0 0 22 18" fill="none" xmlns="http://www.w3.org/2000/svg">
<g clip-path="url(#clip0_23_6062)">
<path d="M13.7499 3.375C14.0763 3.375 14.3953 3.27603 14.6666 3.0906C14.938 2.90518 15.1495 2.64163 15.2743 2.33328C15.3992 2.02493 15.4319 1.68563 15.3682 1.35828C15.3046 1.03094 15.1474 0.730258 14.9167 0.494257C14.6859 0.258257 14.3919 0.097538 14.0718 0.0324256C13.7518 -0.0326869 13.42 0.000731169 13.1185 0.128454C12.817 0.256177 12.5593 0.472467 12.378 0.749975C12.1967 1.02748 12.0999 1.35374 12.0999 1.6875C12.0999 2.13505 12.2738 2.56427 12.5832 2.88074C12.8927 3.19721 13.3123 3.375 13.7499 3.375ZM13.6124 7.6289C13.8075 7.78865 14.0501 7.87547 14.2999 7.87499H16.4999C16.7917 7.87499 17.0715 7.75646 17.2778 7.54549C17.4841 7.33451 17.5999 7.04836 17.5999 6.74999C17.5999 6.45162 17.4841 6.16548 17.2778 5.9545C17.0715 5.74352 16.7917 5.62499 16.4999 5.62499H14.6856L12.2374 3.62109C12.0376 3.45703 11.788 3.36961 11.5318 3.37398C11.2756 3.37834 11.029 3.47422 10.8346 3.645L6.9846 7.01999C6.85564 7.13307 6.75404 7.27516 6.68777 7.43512C6.62149 7.59508 6.59234 7.76856 6.60259 7.94198C6.61285 8.11539 6.66224 8.28401 6.74688 8.43464C6.83153 8.58526 6.94913 8.71379 7.09047 8.81015L9.89994 10.7269V14.625C9.89994 14.9234 10.0158 15.2095 10.2221 15.4205C10.4284 15.6315 10.7082 15.75 10.9999 15.75C11.2917 15.75 11.5715 15.6315 11.7778 15.4205C11.984 15.2095 12.0999 14.9234 12.0999 14.625V10.125C12.0999 9.93982 12.0552 9.75751 11.9697 9.59426C11.8843 9.431 11.7608 9.29185 11.6101 9.18913L10.1883 8.21987L12.1907 6.46488L13.6124 7.6289ZM17.5999 8.99999C16.7297 8.99999 15.879 9.26391 15.1554 9.75838C14.4319 10.2528 13.8679 10.9556 13.5349 11.7779C13.2018 12.6002 13.1147 13.505 13.2845 14.3779C13.4543 15.2508 13.8733 16.0526 14.4887 16.682C15.104 17.3113 15.888 17.7399 16.7415 17.9135C17.5951 18.0871 18.4798 17.998 19.2838 17.6574C20.0877 17.3168 20.7749 16.7401 21.2584 16C21.7419 15.26 21.9999 14.39 21.9999 13.5C21.9999 12.3065 21.5364 11.1619 20.7112 10.318C19.8861 9.4741 18.7669 8.99999 17.5999 8.99999ZM17.5999 15.75C17.1648 15.75 16.7395 15.618 16.3777 15.3708C16.0159 15.1236 15.7339 14.7722 15.5674 14.361C15.4009 13.9499 15.3573 13.4975 15.4422 13.061C15.5271 12.6246 15.7366 12.2237 16.0443 11.909C16.352 11.5943 16.744 11.38 17.1707 11.2932C17.5975 11.2064 18.0399 11.251 18.4418 11.4213C18.8438 11.5916 19.1874 11.8799 19.4292 12.25C19.6709 12.62 19.7999 13.055 19.7999 13.5C19.7999 14.0967 19.5682 14.669 19.1556 15.091C18.743 15.5129 18.1834 15.75 17.5999 15.75ZM4.39994 8.99999C3.5297 8.99999 2.67901 9.26391 1.95543 9.75838C1.23186 10.2528 0.667897 10.9556 0.334871 11.7779C0.0018454 12.6002 -0.0852893 13.505 0.0844857 14.3779C0.254261 15.2508 0.67332 16.0526 1.28867 16.682C1.90402 17.3113 2.68803 17.7399 3.54154 17.9135C4.39506 18.0871 5.27975 17.998 6.08375 17.6574C6.88774 17.3168 7.57493 16.7401 8.05841 16C8.54189 15.26 8.79994 14.39 8.79994 13.5C8.79994 12.3065 8.33637 11.1619 7.51121 10.318C6.68605 9.4741 5.56689 8.99999 4.39994 8.99999ZM4.39994 15.75C3.96482 15.75 3.53948 15.618 3.17769 15.3708C2.8159 15.1236 2.53392 14.7722 2.36741 14.361C2.20089 13.9499 2.15733 13.4975 2.24221 13.061C2.3271 12.6246 2.53663 12.2237 2.84431 11.909C3.15198 11.5943 3.54398 11.38 3.97074 11.2932C4.3975 11.2064 4.83985 11.251 5.24185 11.4213C5.64384 11.5916 5.98744 11.8799 6.22917 12.25C6.47091 12.62 6.59994 13.055 6.59994 13.5C6.59994 14.0967 6.36816 14.669 5.95558 15.091C5.543 15.5129 4.98342 15.75 4.39994 15.75Z" fill="#1B528F"/>
</g>
<defs>
<clipPath id="clip0_23_6062">
<rect width="22" height="18" fill="white"/>
</clipPath>
</defs>
</svg>
