<svg width="18" height="22" viewBox="0 0 18 22" fill="none" xmlns="http://www.w3.org/2000/svg">
<path d="M2.26347 13.2959H15.7365C15.7365 10.9994 15 9.61197 13.7369 8.33045L9 3.31145L4.2631 8.27691C3 9.55843 2.26347 11.0006 2.26347 13.2959ZM15.3683 6.46114C17.1052 8.22337 18 10.5723 18 12.8687C18 15.1652 17.1052 17.5676 15.3683 19.3299C13.6314 21.0921 11.3162 22 9 22C6.68376 22 4.36864 21.0921 2.63174 19.3299C0.894835 17.5676 0 15.1652 0 12.8687C0 10.5723 0.894835 8.22337 2.63174 6.46114L9 0L15.3683 6.46114Z" fill="#1B528F"/>
</svg>
