<svg width="22" height="18" viewBox="0 0 22 18" fill="none" xmlns="http://www.w3.org/2000/svg">
<path d="M18.7763 13.5692C18.6191 13.2608 18.3832 13.1066 18.0687 13.1066H13.3511C13.1152 13.1066 12.8007 13.2608 12.6435 13.4921C12.4862 13.7233 12.4862 14.0317 12.6435 14.263L14.216 17.3469C14.3733 17.5782 14.6091 17.8095 14.9236 17.8095H19.6412C19.8771 17.8095 20.1916 17.6553 20.3488 17.424C20.5061 17.1927 20.5061 16.8843 20.3488 16.6531L18.7763 13.5692Z" fill="#1B528F"/>
<path d="M12.5649 0C7.53278 0 3.3656 3.93197 3.12972 8.86621L0.299178 10.9478C0.063299 11.1791 -0.0939535 11.4875 0.0632989 11.7959C0.141925 12.1043 0.45643 12.3356 0.770934 12.3356H21.2137C21.6855 12.3356 22 12.0272 22 11.5646V9.2517C22 4.16327 17.7542 0 12.5649 0ZM14.4519 7.63265C14.3733 7.70975 14.2946 7.70975 14.1374 7.70975C13.8229 7.70975 13.587 7.55555 13.4297 7.24716L12.6435 5.70521C12.4862 5.31973 12.6435 4.85714 12.958 4.70295C13.3511 4.54875 13.8229 4.70295 13.9801 5.01134L14.7664 6.55329C15.0023 6.93878 14.845 7.40136 14.4519 7.63265ZM17.5969 7.63265C17.5183 7.70975 17.4397 7.70975 17.2824 7.70975C16.9679 7.70975 16.732 7.55555 16.5748 7.24716L15.7885 5.70521C15.6313 5.31973 15.7885 4.85714 16.103 4.70295C16.4962 4.54875 16.9679 4.70295 17.1252 5.01134L17.9114 6.55329C18.1473 6.93878 17.9901 7.40136 17.5969 7.63265Z" fill="#1B528F"/>
</svg>
