<svg width="20" height="20" viewBox="0 0 20 20" fill="none" xmlns="http://www.w3.org/2000/svg">
<path d="M10.0001 0.416626C4.75008 0.416626 0.416748 4.74996 0.416748 9.99996C0.416748 12 1.00008 13.8333 2.08341 15.4166L1.00008 18.6666C0.916748 18.8333 1.00008 19 1.08341 19.0833C1.25008 19.1666 1.41675 19.25 1.58341 19.1666L4.91675 18.0833C6.41675 19.0833 8.25008 19.5833 10.0001 19.5833C15.2501 19.5833 19.5834 15.25 19.5834 9.99996C19.5834 4.74996 15.2501 0.416626 10.0001 0.416626ZM15.7501 13.9166C15.5001 14.6666 14.5001 15.3333 13.6667 15.5C13.5001 15.5 13.3334 15.5833 13.0834 15.5833C12.4167 15.5833 11.5834 15.3333 10.2501 14.8333C8.58342 14.1666 6.91675 12.6666 5.58341 10.75L5.50008 10.6666C5.00008 9.99996 4.25008 8.83329 4.25008 7.58329C4.25008 6.16663 5.00008 5.41663 5.25008 5.08329C5.58341 4.74996 6.00008 4.58329 6.50008 4.58329C6.58341 4.58329 6.66675 4.58329 6.75008 4.58329H6.83341C7.25008 4.58329 7.50008 4.74996 7.75008 5.24996L7.91675 5.58329C8.16675 6.16663 8.50008 7.08329 8.58342 7.24996C8.75008 7.58329 8.75008 7.83329 8.58342 8.08329C8.50008 8.24996 8.41675 8.41663 8.25008 8.58329C8.16675 8.66663 8.08341 8.74996 8.08341 8.83329C8.00008 8.91663 7.91675 8.99996 7.83341 9.08329C7.83341 9.16663 7.83341 9.16663 7.83341 9.16663C8.08341 9.58329 8.58342 10.3333 9.25008 10.9166C10.1667 11.75 10.8334 12 11.1667 12.1666H11.2501C11.3334 12.1666 11.4167 12.25 11.4167 12.1666C11.5834 12 11.7501 11.6666 12.0001 11.4166L12.0834 11.3333C12.3334 11 12.6667 10.9166 12.8334 10.9166C12.9167 10.9166 13.0834 10.9166 13.1667 11C13.2501 11 13.4167 11.0833 15.0001 11.9166L15.1667 12C15.4167 12.0833 15.5834 12.1666 15.6667 12.4166C16.0001 12.5833 15.9167 13.3333 15.7501 13.9166Z" fill="white"/>
</svg>
